<?xml version="1.0" standalone="no"?><!DOCTYPE svg PUBLIC "-//W3C//DTD SVG 1.1//EN" "http://www.w3.org/Graphics/SVG/1.1/DTD/svg11.dtd"><svg t="1594568346494" class="icon" viewBox="0 0 1024 1024" version="1.1" xmlns="http://www.w3.org/2000/svg" p-id="2835" xmlns:xlink="http://www.w3.org/1999/xlink" width="64" height="64"><defs><style type="text/css"></style></defs><path d="M515.128889 564.792889a199.111111 199.111111 0 1 1 0-398.222222 199.111111 199.111111 0 0 1 0 398.222222z m0-56.888889a142.222222 142.222222 0 1 0 0-284.444444 142.222222 142.222222 0 0 0 0 284.444444z" p-id="2836"></path><path d="M828.017778 820.792889a28.444444 28.444444 0 0 1-56.888889 0 256 256 0 0 0-512 0 28.444444 28.444444 0 0 1-56.888889 0 312.945778 312.945778 0 0 1 625.777778 0z" p-id="2837"></path><path d="M113.777778 800.540444m28.444444 0l739.555556 0q28.444444 0 28.444444 28.444445l0 0q0 28.444444-28.444444 28.444444l-739.555556 0q-28.444444 0-28.444444-28.444444l0 0q0-28.444444 28.444444-28.444445Z" p-id="2838"></path><path d="M531.000889 539.875556a28.444444 28.444444 0 1 1 40.675555 39.822222l-48.753777 49.891555-48.810667-49.891555a28.444444 28.444444 0 0 1 40.675556-39.822222l8.135111 8.305777 8.078222-8.248889z" p-id="2839"></path><path d="M459.093333 765.44l35.384889-176.526222h56.888889l35.384889 176.526222-63.829333 35.100444z" p-id="2840"></path></svg>