<?xml version="1.0" standalone="no"?><!DOCTYPE svg PUBLIC "-//W3C//DTD SVG 1.1//EN" "http://www.w3.org/Graphics/SVG/1.1/DTD/svg11.dtd"><svg t="1593959084137" class="icon" viewBox="0 0 1024 1024" version="1.1" xmlns="http://www.w3.org/2000/svg" p-id="2306" width="64" height="64" xmlns:xlink="http://www.w3.org/1999/xlink"><defs><style type="text/css"></style></defs><path d="M564.07839 430.87572a944.377565 944.377565 0 0 1 107.45495 50.482191H1021.663396v60.097847h-262.627591a268.457082 268.457082 0 0 1 23.678552 22.777084 249.886847 249.886847 0 0 1 59.556966 167.192209 246.401172 246.401172 0 0 1-108.777103 216.953227 543.044144 543.044144 0 0 1-309.203422 74.641526 709.695473 709.695473 0 0 1-300.489234-54.869334v-211.183834a467.741542 467.741542 0 0 0 292.676514 98.921056 264.430526 264.430526 0 0 0 139.787592-29.688336 88.043346 88.043346 0 0 0 46.816223-76.264168 104.930841 104.930841 0 0 0-37.200567-75.963678 715.885551 715.885551 0 0 0-196.21947-96.997925A670.391481 670.391481 0 0 1 294.479449 541.455758H0V481.357911h207.93855A249.466162 249.466162 0 0 1 120.195694 291.148226a243.696769 243.696769 0 0 1 113.284441-214.068531A528.861052 528.861052 0 0 1 533.067901 0.575136a791.488642 791.488642 0 0 1 262.387199 37.621252v198.082504A461.851953 461.851953 0 0 0 544.125905 168.849107a273.024518 273.024518 0 0 0-134.318688 28.366184 85.519236 85.519236 0 0 0-50.2418 76.264168 95.495479 95.495479 0 0 0 34.436067 70.494774 657.59064 657.59064 0 0 0 170.076906 86.901487z" fill="#484D55" p-id="2307" data-spm-anchor-id="a313x.7781069.0.i1" class=""></path></svg>