<?xml version="1.0" standalone="no"?><!DOCTYPE svg PUBLIC "-//W3C//DTD SVG 1.1//EN" "http://www.w3.org/Graphics/SVG/1.1/DTD/svg11.dtd"><svg t="1594637362789" class="icon" viewBox="0 0 1024 1024" version="1.1" xmlns="http://www.w3.org/2000/svg" p-id="1400" xmlns:xlink="http://www.w3.org/1999/xlink" width="200" height="200"><defs><style type="text/css"></style></defs><path d="M153.6 902.4a32 32 0 1 1 0-64h716.8a32 32 0 1 1 0 64H153.6z m51.2-780.8h614.4c45.9264 0 83.2 37.2736 83.2 83.2v512c0 45.9264-37.2736 83.2-83.2 83.2H204.8A83.2 83.2 0 0 1 121.6 716.8V204.8c0-45.9264 37.2736-83.2 83.2-83.2z m0 64A19.2 19.2 0 0 0 185.6 204.8v512c0 10.5984 8.6016 19.2 19.2 19.2h614.4a19.2 19.2 0 0 0 19.2-19.2V204.8A19.2 19.2 0 0 0 819.2 185.6H204.8z m76.8 448a32 32 0 1 1-51.2-38.4L358.4 424.6016a83.2 83.2 0 0 1 103.7312-24.5248l128.3584 64.2048a19.2 19.2 0 0 0 23.9616-5.632L742.4 287.9488a32 32 0 0 1 51.2 38.4L665.6 496.9984a83.2 83.2 0 0 1-103.7312 24.5248L433.5104 457.3184a19.2 19.2 0 0 0-23.9616 5.632L281.6 633.6512z" fill="#2c2c2c" p-id="1401"></path></svg>