<?xml version="1.0" standalone="no"?><!DOCTYPE svg PUBLIC "-//W3C//DTD SVG 1.1//EN" "http://www.w3.org/Graphics/SVG/1.1/DTD/svg11.dtd"><svg t="1594637439651" class="icon" viewBox="0 0 1024 1024" version="1.1" xmlns="http://www.w3.org/2000/svg" p-id="2515" xmlns:xlink="http://www.w3.org/1999/xlink" width="200" height="200"><defs><style type="text/css"></style></defs><path d="M874.666667 895.525926h-725.333334c-11.757037 0-21.333333-9.576296-21.333333-21.333333s9.576296-21.333333 21.333333-21.333334h725.333334c11.757037 0 21.333333 9.576296 21.333333 21.333334s-9.576296 21.333333-21.333333 21.333333z" p-id="2516"></path><path d="M388.740741 895.525926H192.474074c-11.757037 0-21.333333-9.576296-21.333333-21.333333V511.525926c0-11.757037 9.576296-21.333333 21.333333-21.333333h196.266667c11.757037 0 21.333333 9.576296 21.333333 21.333333V874.192593c0 11.757037-9.576296 21.333333-21.333333 21.333333z m-174.933334-42.666667h153.6V532.859259h-153.6v320zM831.525926 895.525926H635.259259c-11.757037 0-21.333333-9.576296-21.333333-21.333333V381.62963c0-7.016296 3.413333-13.558519 9.197037-17.540741 5.783704-3.982222 13.084444-4.93037 19.626667-2.465185l196.266666 73.007407c8.343704 3.128889 13.937778 11.093333 13.937778 20.005926V874.192593c-0.094815 11.757037-9.671111 21.333333-21.428148 21.333333z m-174.933333-42.666667h153.6V469.428148l-153.6-57.173333v440.604444z" p-id="2517"></path><path d="M635.259259 895.525926H388.740741c-11.757037 0-21.333333-9.576296-21.333334-21.333333V283.97037c0-11.757037 9.576296-21.333333 21.333334-21.333333h246.518518c11.757037 0 21.333333 9.576296 21.333334 21.333333V874.192593c0 11.757037-9.576296 21.333333-21.333334 21.333333z m-225.185185-42.666667h203.851852V305.303704h-203.851852v547.555555z" p-id="2518"></path><path d="M576 304.82963h-128c-11.757037 0-21.333333-9.576296-21.333333-21.333334v-70.637037c0-11.757037 9.576296-21.333333 21.333333-21.333333h128c11.757037 0 21.333333 9.576296 21.333333 21.333333V283.496296c0 11.757037-9.576296 21.333333-21.333333 21.333334z m-106.666667-42.666667h85.333334V234.192593h-85.333334v27.97037zM771.792593 895.525926h-75.851852c-11.757037 0-21.333333-9.576296-21.333334-21.333333v-82.488889c0-11.757037 9.576296-21.333333 21.333334-21.333334h75.851852c11.757037 0 21.333333 9.576296 21.333333 21.333334v82.488889c0 11.757037-9.576296 21.333333-21.333333 21.333333z m-54.518519-42.666667h33.185185v-39.822222h-33.185185v39.822222zM578.37037 895.525926H445.62963c-11.757037 0-21.333333-9.576296-21.333334-21.333333v-82.488889c0-11.757037 9.576296-21.333333 21.333334-21.333334h132.74074c11.757037 0 21.333333 9.576296 21.333334 21.333334v82.488889c0 11.757037-9.576296 21.333333-21.333334 21.333333z m-111.407407-42.666667h90.074074v-39.822222h-90.074074v39.822222zM329.007407 895.525926h-75.851851c-11.757037 0-21.333333-9.576296-21.333334-21.333333v-82.488889c0-11.757037 9.576296-21.333333 21.333334-21.333334h75.851851c11.757037 0 21.333333 9.576296 21.333334 21.333334v82.488889c0 11.757037-9.576296 21.333333-21.333334 21.333333z m-54.518518-42.666667h33.185185v-39.822222h-33.185185v39.822222z" p-id="2519"></path><path d="M512 233.718519c-11.757037 0-21.333333-9.576296-21.333333-21.333334v-63.525926c0-11.757037 9.576296-21.333333 21.333333-21.333333s21.333333 9.576296 21.333333 21.333333v63.525926c0 11.757037-9.576296 21.333333-21.333333 21.333334zM771.318519 531.911111h-75.851852c-11.757037 0-21.333333-9.576296-21.333334-21.333333s9.576296-21.333333 21.333334-21.333334h75.851852c11.757037 0 21.333333 9.576296 21.333333 21.333334S783.075556 531.911111 771.318519 531.911111zM771.318519 592.592593h-75.851852c-11.757037 0-21.333333-9.576296-21.333334-21.333334s9.576296-21.333333 21.333334-21.333333h75.851852c11.757037 0 21.333333 9.576296 21.333333 21.333333S783.075556 592.592593 771.318519 592.592593zM771.318519 653.274074h-75.851852c-11.757037 0-21.333333-9.576296-21.333334-21.333333s9.576296-21.333333 21.333334-21.333334h75.851852c11.757037 0 21.333333 9.576296 21.333333 21.333334S783.075556 653.274074 771.318519 653.274074zM771.318519 713.955556h-75.851852c-11.757037 0-21.333333-9.576296-21.333334-21.333334s9.576296-21.333333 21.333334-21.333333h75.851852c11.757037 0 21.333333 9.576296 21.333333 21.333333S783.075556 713.955556 771.318519 713.955556zM477.392593 713.481481c-11.757037 0-21.333333-9.576296-21.333334-21.333333V386.844444c0-11.757037 9.576296-21.333333 21.333334-21.333333S498.725926 375.087407 498.725926 386.844444v305.303704c0 11.757037-9.576296 21.333333-21.333333 21.333333zM545.659259 713.481481c-11.757037 0-21.333333-9.576296-21.333333-21.333333V386.844444c0-11.757037 9.576296-21.333333 21.333333-21.333333S566.992593 375.087407 566.992593 386.844444v305.303704c0 11.757037-9.576296 21.333333-21.333334 21.333333zM328.533333 621.037037c-11.757037 0-21.333333-9.576296-21.333333-21.333333v-28.444445c0-11.757037 9.576296-21.333333 21.333333-21.333333s21.333333 9.576296 21.333334 21.333333v28.444445c0 11.757037-9.576296 21.333333-21.333334 21.333333zM328.533333 713.955556c-11.757037 0-21.333333-9.576296-21.333333-21.333334v-28.444444c0-11.757037 9.576296-21.333333 21.333333-21.333334s21.333333 9.576296 21.333334 21.333334v28.444444c0 11.757037-9.576296 21.333333-21.333334 21.333334zM252.681481 621.037037c-11.757037 0-21.333333-9.576296-21.333333-21.333333v-28.444445c0-11.757037 9.576296-21.333333 21.333333-21.333333s21.333333 9.576296 21.333334 21.333333v28.444445c0 11.757037-9.576296 21.333333-21.333334 21.333333zM252.681481 713.955556c-11.757037 0-21.333333-9.576296-21.333333-21.333334v-28.444444c0-11.757037 9.576296-21.333333 21.333333-21.333334s21.333333 9.576296 21.333334 21.333334v28.444444c0 11.757037-9.576296 21.333333-21.333334 21.333334z" p-id="2520"></path></svg>