<?xml version="1.0" standalone="no"?><!DOCTYPE svg PUBLIC "-//W3C//DTD SVG 1.1//EN" "http://www.w3.org/Graphics/SVG/1.1/DTD/svg11.dtd"><svg t="1594567932407" class="icon" viewBox="0 0 1024 1024" version="1.1" xmlns="http://www.w3.org/2000/svg" p-id="2208" xmlns:xlink="http://www.w3.org/1999/xlink" width="64" height="64"><defs><style type="text/css"></style></defs><path d="M466.944 737.28c-4.096 4.096-12.288 8.192-20.48 12.288-8.192 4.096-16.384 4.096-24.576 4.096-20.48 0-36.864-8.192-45.056-20.48-12.288-12.288-16.384-28.672-16.384-49.152L323.584 684.032c0 16.384 0 28.672 8.192 40.96 4.096 12.288 12.288 24.576 20.48 32.768 8.192 8.192 20.48 16.384 32.768 20.48 12.288 4.096 24.576 8.192 40.96 8.192 12.288 0 28.672 0 40.96-4.096 12.288-4.096 24.576-8.192 32.768-16.384 8.192-8.192 16.384-16.384 20.48-28.672 4.096-12.288 8.192-24.576 8.192-40.96 0-16.384-4.096-32.768-12.288-49.152-8.192-12.288-20.48-20.48-40.96-24.576l0 0c12.288-4.096 20.48-12.288 28.672-24.576 8.192-12.288 12.288-24.576 12.288-36.864 0-12.288-4.096-24.576-8.192-36.864-4.096-12.288-12.288-20.48-20.48-24.576-8.192-8.192-16.384-12.288-28.672-16.384-12.288-4.096-24.576-4.096-36.864-4.096-16.384 0-28.672 4.096-36.864 8.192-12.288 4.096-20.48 12.288-28.672 20.48-8.192 8.192-12.288 20.48-16.384 32.768C331.776 544.768 327.68 557.056 327.68 573.44l36.864 0c0-8.192 0-16.384 4.096-24.576C368.64 540.672 372.736 532.48 376.832 528.384c4.096-4.096 12.288-12.288 16.384-12.288 8.192-4.096 16.384-4.096 24.576-4.096 16.384 0 28.672 4.096 36.864 12.288 8.192 8.192 16.384 20.48 16.384 36.864 0 8.192 0 16.384-4.096 20.48-4.096 8.192-8.192 12.288-12.288 16.384s-12.288 8.192-16.384 8.192c-8.192 4.096-12.288 4.096-20.48 4.096L409.6 610.304c0 0-4.096 0-4.096 0 0 0-4.096 0-4.096 0l0 32.768c8.192 0 12.288 0 20.48 0 8.192 0 16.384 0 24.576 4.096 8.192 4.096 12.288 4.096 20.48 12.288 4.096 4.096 8.192 12.288 12.288 16.384 4.096 8.192 4.096 16.384 4.096 24.576 0 8.192 0 16.384-4.096 24.576C475.136 724.992 471.04 729.088 466.944 737.28z" p-id="2209"></path><path d="M851.968 155.648l-73.728 0L778.24 98.304c0-12.288-8.192-20.48-20.48-20.48S737.28 90.112 737.28 98.304l0 57.344L286.72 155.648 286.72 98.304C286.72 90.112 278.528 81.92 266.24 81.92 258.048 81.92 249.856 90.112 249.856 98.304l0 57.344L172.032 155.648c-40.96 0-73.728 32.768-73.728 73.728l0 114.688 0 36.864 0 450.56c0 40.96 32.768 73.728 73.728 73.728l679.936 0c40.96 0 73.728-32.768 73.728-73.728l0-450.56L925.696 344.064 925.696 233.472C925.696 188.416 892.928 155.648 851.968 155.648zM888.832 835.584c0 20.48-16.384 36.864-36.864 36.864L172.032 872.448c-20.48 0-36.864-16.384-36.864-36.864l0-450.56 753.664 0L888.832 835.584zM888.832 344.064 135.168 344.064 135.168 233.472c0-20.48 16.384-36.864 36.864-36.864l73.728 0 0 57.344c0 12.288 8.192 20.48 20.48 20.48C278.528 270.336 286.72 262.144 286.72 249.856L286.72 192.512l450.56 0 0 57.344c0 12.288 8.192 20.48 20.48 20.48s20.48-8.192 20.48-20.48L778.24 192.512l73.728 0c20.48 0 36.864 16.384 36.864 36.864L888.832 344.064z" p-id="2210"></path><path d="M643.072 778.24l36.864 0 0-303.104-28.672 0c0 12.288-4.096 20.48-12.288 28.672-4.096 8.192-12.288 12.288-20.48 16.384-8.192 4.096-16.384 8.192-24.576 8.192-8.192 0-20.48 4.096-28.672 4.096l0 28.672 77.824 0L643.072 778.24z" p-id="2211"></path></svg>